<?xml version="1.0" standalone="no"?><!DOCTYPE svg PUBLIC "-//W3C//DTD SVG 1.1//EN" "http://www.w3.org/Graphics/SVG/1.1/DTD/svg11.dtd"><svg t="1604244107867" class="icon" viewBox="0 0 1024 1024" version="1.1" xmlns="http://www.w3.org/2000/svg" p-id="10878" xmlns:xlink="http://www.w3.org/1999/xlink" width="200" height="200"><defs><style type="text/css"></style></defs><path d="M443.733 85.333H102.4c-18.842 0-34.133 15.292-34.133 34.134V460.8c0 18.842 15.291 34.133 34.133 34.133h341.333c18.842 0 34.134-15.291 34.134-34.133V119.467c0-18.842-15.292-34.134-34.134-34.134z m0 460.8H102.4c-18.842 0-34.133 15.292-34.133 34.134V921.6c0 18.842 15.291 34.133 34.133 34.133h341.333c18.842 0 34.134-15.291 34.134-34.133V580.267c0-18.842-15.292-34.134-34.134-34.134z m537.242-277.162L771.635 59.614c-11.571-11.571-30.293-11.571-41.864 0L520.414 268.97c-11.571 11.57-11.571 30.293 0 41.864l209.357 209.34c11.57 11.571 30.293 11.571 41.864 0l209.357-209.357c11.554-11.554 11.554-30.276-0.017-41.847z m-65.724 35.942L765.713 454.451c-8.243 8.26-21.658 8.26-29.9 0L586.273 304.913c-8.26-8.243-8.26-21.658 0-29.9l149.538-149.539c8.243-8.26 21.658-8.26 29.901 0l149.538 149.538c8.26 8.26 8.26 21.658 0 29.901z m6.349 241.22H580.267c-18.842 0-34.134 15.292-34.134 34.134V921.6c0 18.842 15.292 34.133 34.134 34.133H921.6c18.842 0 34.133-15.291 34.133-34.133V580.267c0-18.842-15.291-34.134-34.133-34.134z" p-id="10879"></path></svg>